<?xml version="1.0" encoding="UTF-8" standalone="no"?>
<!-- Created with Inkscape (http://www.inkscape.org/) -->

<svg
   version="1.1"
   id="svg105"
   width="993"
   height="258"
   viewBox="0 0 993 258"
   sodipodi:docname="MRFLabLogoBb.svg"
   inkscape:version="1.2.2 (b0a8486541, 2022-12-01)"
   xmlns:inkscape="http://www.inkscape.org/namespaces/inkscape"
   xmlns:sodipodi="http://sodipodi.sourceforge.net/DTD/sodipodi-0.dtd"
   xmlns="http://www.w3.org/2000/svg"
   xmlns:svg="http://www.w3.org/2000/svg">
  <defs
     id="defs109" />
  <sodipodi:namedview
     id="namedview107"
     pagecolor="#ffffff"
     bordercolor="#000000"
     borderopacity="0.25"
     inkscape:showpageshadow="2"
     inkscape:pageopacity="0.0"
     inkscape:pagecheckerboard="0"
     inkscape:deskcolor="#d1d1d1"
     showgrid="false"
     inkscape:zoom="0.81955531"
     inkscape:cx="476.47791"
     inkscape:cy="170.82435"
     inkscape:window-width="1366"
     inkscape:window-height="699"
     inkscape:window-x="0"
     inkscape:window-y="0"
     inkscape:window-maximized="1"
     inkscape:current-layer="g111" />
  <g
     inkscape:groupmode="layer"
     inkscape:label="Image"
     id="g111">
    <path
       style="fill:#000000"
       d="m 379.10914,228.82502 c -12.34695,-6.11155 -18.54009,-19.95101 -14.75485,-32.97181 2.36569,-8.13768 6.42534,-13.08728 13.72665,-16.73579 13.99481,-6.99329 28.90437,-2.05169 36.64656,12.14608 2.49068,4.56746 2.49068,19.90554 0,24.473 -3.08016,5.64845 -8.054,10.5064 -13.22022,12.91219 -6.75646,3.14632 -16.24701,3.22104 -22.39814,0.17633 z m 21.79939,-3.26163 c 5.45294,-3.77889 9.3859,-11.82363 9.92582,-20.3029 1.04776,-16.45475 -8.33713,-28.04317 -21.91536,-27.06101 -12.08513,0.87416 -19.30781,10.12965 -19.26505,24.68718 0.0346,11.76537 4.2615,19.83076 12.84606,24.51146 4.66876,2.54563 13.33389,1.68199 18.40853,-1.83473 z m 67.44847,4.44503 c -3.34985,-1.35183 -5.35188,-5.04304 -5.41344,-9.98093 -0.14027,-11.25182 -3.83272,-14.93485 -15.79506,-15.75477 L 439,203.71421 v 10.20864 C 439,224.8371 439.90664,228 443.03518,228 c 1.08065,0 1.96482,0.45 1.96482,1 0,0.58333 -3.33333,1 -8,1 -4.4,0 -8,-0.4187 -8,-0.93045 0,-0.51175 1.0125,-1.07425 2.25,-1.25 l 2.25,-0.31955 0.26804,-23.72642 0.26805,-23.72642 -2.51805,-0.63199 C 425.53625,177.91384 429.99562,177 443.30366,177 c 13.32417,0 14.65375,0.17446 19.41625,2.54772 12.00474,5.98221 12.1164,16.37698 0.23507,21.88168 l -4.70275,2.17882 2.7881,1.60014 c 4.02662,2.31097 5.69008,5.37928 7.44869,13.73946 0.85651,4.07167 2.05196,7.9991 2.65658,8.72761 1.99063,2.39857 5.81048,1.56524 7.65091,-1.66911 2.00222,-3.51865 3.63639,-3.98459 2.6526,-0.75632 -1.6203,5.31694 -6.92784,7.24601 -13.09211,4.75842 z M 458.5,200.53745 c 4.55102,-1.91358 6.77273,-4.97345 6.77273,-9.32781 0,-8.03476 -4.26703,-11.1242 -16.52478,-11.96437 -6.1715,-0.423 -8.14276,-0.23213 -8.83114,0.85509 -1.07572,1.699 -1.22188,21.25833 -0.16681,22.32344 1.0477,1.05766 15.11393,-0.35748 18.75,-1.88635 z m 156.60914,28.28757 c -12.34695,-6.11155 -18.54009,-19.95101 -14.75485,-32.97181 2.36569,-8.13768 6.42534,-13.08728 13.72665,-16.73579 13.99481,-6.99329 28.90437,-2.05169 36.64656,12.14608 2.49068,4.56746 2.49068,19.90554 0,24.473 -3.08016,5.64845 -8.054,10.5064 -13.22022,12.91219 -6.75646,3.14632 -16.24701,3.22104 -22.39814,0.17633 z m 21.79939,-3.26163 c 5.45294,-3.77889 9.3859,-11.82363 9.92582,-20.3029 1.04776,-16.45475 -8.33713,-28.04317 -21.91536,-27.06101 -12.08513,0.87416 -19.30781,10.12965 -19.26505,24.68718 0.0346,11.76537 4.2615,19.83076 12.84606,24.51146 4.66876,2.54563 13.33389,1.68199 18.40853,-1.83473 z m 67.44847,4.44503 c -3.34985,-1.35183 -5.35188,-5.04304 -5.41344,-9.98093 -0.14027,-11.25182 -3.83272,-14.93485 -15.79506,-15.75477 L 675,203.71421 v 10.20864 C 675,224.8371 675.90664,228 679.03518,228 c 1.08065,0 1.96482,0.45 1.96482,1 0,0.58333 -3.33333,1 -8,1 -4.4,0 -8,-0.4187 -8,-0.93045 0,-0.51175 1.0125,-1.07425 2.25,-1.25 l 2.25,-0.31955 0.26804,-23.72642 0.26805,-23.72642 -2.51805,-0.63199 C 661.53625,177.91384 665.99562,177 679.30366,177 c 13.32417,0 14.65375,0.17446 19.41625,2.54772 12.00474,5.98221 12.1164,16.37698 0.23507,21.88168 l -4.70275,2.17882 2.7881,1.60014 c 4.02662,2.31097 5.69008,5.37928 7.44869,13.73946 0.85651,4.07167 2.05196,7.9991 2.65658,8.72761 1.99063,2.39857 5.81048,1.56524 7.65091,-1.66911 2.00222,-3.51865 3.63639,-3.98459 2.6526,-0.75632 -1.6203,5.31694 -6.92784,7.24601 -13.09211,4.75842 z M 694.5,200.53745 c 4.55102,-1.91358 6.77273,-4.97345 6.77273,-9.32781 0,-8.03476 -4.26703,-11.1242 -16.52478,-11.96437 -6.1715,-0.423 -8.14276,-0.23213 -8.83114,0.85509 -1.07572,1.699 -1.22188,21.25833 -0.16681,22.32344 1.0477,1.05766 15.11393,-0.35748 18.75,-1.88635 z m 75.5,28.2774 c -3.51011,-1.80564 -5.10493,-3.50916 -7.25,-7.74416 -2.69444,-5.31963 -2.75,-5.78985 -2.75,-23.275 V 179.95 l -3,-0.6 c -5.74933,-1.14987 -2.9405,-2.35 5.5,-2.35 5,0 8.5,0.41176 8.5,1 0,0.55 -0.8449,1 -1.87756,1 -3.91319,0 -4.29776,2.06259 -3.95257,21.19901 0.36122,20.02433 1.03311,22.73521 6.52902,26.34256 3.73514,2.45163 10.99696,2.40446 15.28191,-0.0993 6.12586,-3.57938 7.474,-7.91204 7.86026,-25.26144 0.39108,-17.56591 0.0351,-19.82453 -3.36865,-21.37539 C 787.34239,177.92371 788.66848,177 795.5,177 c 4.03762,0 6.5,0.41429 6.5,1.09362 0,0.60149 -0.90492,1.33026 -2.01094,1.61949 -2.66788,0.69767 -2.8685,2.01521 -3.24136,21.28689 -0.35759,18.48275 -1.55603,22.59114 -7.90966,27.11533 -4.76589,3.39361 -13.00598,3.69959 -18.83804,0.69952 z m -630.9503,-0.72199 c -1.46825,-2.74344 1.74528,-6.61009 4.71122,-5.66874 2.62816,0.83415 3.82455,4.16551 2.19925,6.12387 -1.71098,2.06161 -5.70431,1.79861 -6.91047,-0.45513 z M 189,229.14466 c 0,-0.47044 1.4625,-1.27478 3.25,-1.78743 l 3.25,-0.93208 V 197 167.57485 l -3.25,-0.93208 C 186.30784,164.93858 188.88268,164 199.5,164 c 6.33333,0 10.5,0.39683 10.5,1 0,0.55 -0.7875,1.00663 -1.75,1.01474 -0.9625,0.008 -2.80601,0.57061 -4.0967,1.25 l -2.34669,1.23526 0.0617,28.91933 c 0.0477,22.37185 0.35261,29.12074 1.3467,29.8089 1.8213,1.26079 17.39777,0.0234 20.60897,-1.63719 5.36095,-2.77225 9.03777,-9.35153 9.13217,-16.34104 0.0241,-1.7875 0.5474,-3.25 1.16281,-3.25 0.79643,0 0.91782,2.81012 0.42117,9.75 -1.14585,16.0115 1.77745,14.25 -23.6485,14.25 C 198.85122,230 189,229.6151 189,229.14466 Z m 53,-0.0773 c 0,-0.51294 0.84065,-1.19943 1.86812,-1.52553 3.51113,-1.11439 5.27891,-4.37262 15.02728,-27.69719 5.64797,-13.51367 10.35642,-23.45283 11.18069,-23.6015 0.95336,-0.17196 2.71558,2.96745 5.33258,9.5 2.14976,5.36626 6.83319,16.68519 10.40762,25.15319 5.62562,13.32739 6.88091,15.54053 9.34133,16.46924 4.73308,1.78653 3.23405,2.6344 -4.65762,2.6344 -6.97418,0 -9.53136,-1.00652 -6,-2.36163 2.0568,-0.78927 1.90931,-2.04557 -1.15799,-9.86361 L 280.68403,211 h -12.21887 -12.21887 l -2.04232,4.75 c -3.17834,7.39217 -3.54615,9.72113 -1.76826,11.19665 C 255.21244,229.25113 254.12453,230 248,230 c -3.3,0 -6,-0.41968 -6,-0.93261 z m 37,-20.92912 c 0,-0.74129 -9.87042,-25.23852 -10.42191,-25.86595 -0.27126,-0.30862 -10.59857,25.03151 -10.58715,25.97768 0.005,0.4125 4.73406,0.75 10.50906,0.75 5.775,0 10.5,-0.38778 10.5,-0.86173 z m 28,21.04857 c 0,-0.51526 1.35,-1.20684 3,-1.53684 l 3,-0.6 v -23.55 -23.55 l -3,-0.6 c -7.07656,-1.41531 -1.89318,-2.35 13.03212,-2.35 17.41276,0 20.42109,0.65341 25.19359,5.47208 5.77168,5.8275 4.48534,12.15186 -3.54745,17.44115 l -3.66495,2.41324 3.74335,1.70485 c 5.2373,2.38524 8.31604,6.09179 8.94308,10.76673 0.65579,4.8893 -1.39103,8.76541 -6.4675,12.24766 -3.42896,2.35212 -4.34083,2.46727 -21.90507,2.76613 C 314.37751,229.99815 307,229.74656 307,229.18684 Z m 34.68935,-3.65065 c 6.93645,-4.12302 8.09431,-12.49509 2.47292,-17.88072 C 340.4464,204.09544 336.23318,203 326.2566,203 H 318 v 11.83333 c 0,6.50834 0.3375,12.17771 0.75,12.59862 0.4125,0.4209 5.025,0.59309 10.25,0.38263 7.02044,-0.28277 10.33244,-0.87745 12.68935,-2.27839 z m -3.02378,-25.86325 c 4.7235,-2.44262 6.78898,-5.44094 6.78898,-9.85515 0,-7.73048 -7.15669,-11.36249 -20.95455,-10.6344 l -6,0.31661 -0.28416,11.40023 -0.28415,11.40024 8.94737,-0.57968 c 4.92105,-0.31882 10.22498,-1.24035 11.78651,-2.04785 z M 484,229 c 0,-0.55 0.62515,-1 1.38922,-1 3.50199,0 6.18183,-4.70405 15.89423,-27.89981 5.6191,-13.4199 10.66655,-24.38748 11.21655,-24.3724 0.55,0.0151 4.66753,8.74499 9.15007,19.39981 14.14182,33.61452 13.27767,31.90795 16.48146,32.54871 C 543.63792,228.77758 540.9384,230 533,230 c -7.61606,0 -10.32306,-1.12791 -6,-2.5 2.56837,-0.81517 2.54813,-1.01642 -0.92003,-9.15104 l -2.92003,-6.84896 -12.12124,-0.28111 -12.12124,-0.28111 -2.45873,5.55962 c -2.80574,6.34428 -3.13105,10.03063 -0.95873,10.86423 3.54518,1.36041 1.12331,2.63837 -5,2.63837 -3.66667,0 -6.5,-0.4359 -6.5,-1 z m 37.83333,-20.81304 c -0.18333,-0.44716 -2.58086,-6.29716 -5.32784,-13 -2.74698,-6.70283 -5.22198,-12.18527 -5.5,-12.18321 -0.38152,0.003 -8.51502,18.83654 -10.83882,25.09808 C 499.98215,208.599 504.81878,209 511,209 c 6.14167,0 11.01667,-0.36587 10.83333,-0.81304 z M 555,229 c 0,-0.55 1.0125,-1.00689 2.25,-1.01531 5.15812,-0.0351 5.22824,-0.3359 5.55316,-23.82219 0.36012,-26.0299 0.44712,-25.78713 -8.89208,-24.811 -10.09076,1.0547 -12.29002,3.24012 -13.15417,13.07138 -0.1413,1.60759 -0.70691,3.0702 -1.25691,3.25025 -0.6496,0.21266 -0.77012,-2.91394 -0.34394,-8.92288 0.36083,-5.08764 0.69833,-9.36275 0.75,-9.50025 C 539.95773,177.1125 551.25,177 565,177 c 13.75,0 25.04227,0.1125 25.09394,0.25 0.0517,0.1375 0.38917,4.41261 0.75,9.50025 0.42625,6.00999 0.30577,9.13393 -0.34394,8.91818 -0.55,-0.18264 -1.29271,-2.69358 -1.65047,-5.57985 -0.91684,-7.39678 -3.36029,-9.6961 -11.19555,-10.53519 C 567.33315,178.44813 568,176.79402 568,203.5 c 0,25.26305 -0.17384,24.5 5.58179,24.5 1.33001,0 2.41821,0.45 2.41821,1 0,0.60317 -4.16667,1 -10.5,1 -6.33333,0 -10.5,-0.39683 -10.5,-1 z m 170,0 c 0,-0.55 0.64286,-1 1.42857,-1 0.78572,0 2.13572,-0.70714 3,-1.57143 C 730.75734,225.0998 731,221.61524 731,203.86283 731,182.13852 730.49063,179 726.96482,179 725.88417,179 725,178.55 725,178 c 0,-0.58824 3.5,-1 8.5,-1 8.4405,0 11.24933,1.20013 5.5,2.35 l -3,0.6 v 23.55 23.55 l 3,0.6 c 5.74933,1.14987 2.9405,2.35 -5.5,2.35 -5,0 -8.5,-0.41176 -8.5,-1 z m 91,0.0674 c 0,-0.51294 0.88599,-1.21382 1.96888,-1.55751 3.03929,-0.96464 3.55555,-5.30536 3.24102,-27.25089 l -0.29009,-20.24101 -2.45991,-0.6174 c -4.50879,-1.13163 -2.53435,-2.50436 3.16504,-2.20048 l 5.62494,0.2999 9.35217,22.89377 c 5.14369,12.59158 9.5008,23.04241 9.68246,23.22407 0.18166,0.18166 3.62592,-7.87054 7.6539,-17.89377 4.02799,-10.02324 8.36489,-20.58657 9.63757,-23.47407 l 2.31396,-5.25 h 5.55503 c 3.05527,0 5.55503,0.45 5.55503,1 0,0.55 -0.81,1 -1.8,1 -3.92444,0 -4.2,1.60743 -4.2,24.5 0,22.89257 0.27556,24.5 4.2,24.5 0.99,0 1.8,0.45 1.8,1 0,0.58333 -3.33333,1 -8,1 -7.82791,0 -10.47758,-1.16135 -5.5,-2.41064 l 2.5,-0.62746 v -22.64762 c 0,-12.45619 -0.1828,-22.46011 -0.40623,-22.23095 -0.22342,0.22917 -4.69169,10.99167 -9.92948,23.91667 -5.23779,12.925 -10.07228,23.5 -10.74331,23.5 -0.67102,0 -5.18585,-9.675 -10.03295,-21.5 -4.8471,-11.825 -9.24936,-22.4 -9.78279,-23.5 -0.66004,-1.36107 -0.9915,4.95526 -1.03756,19.77144 L 824,226.04288 l 2.5,1.13907 c 4.15726,1.89418 2.84589,2.81805 -4,2.81805 -3.575,0 -6.5,-0.41968 -6.5,-0.93261 z M 76.787094,225.80287 C 76.529991,225.08629 76.648,221.125 77.049338,217 c 0.401337,-4.125 0.598154,-7.64377 0.437371,-7.81948 -0.160783,-0.17571 -3.110834,1.75539 -6.555668,4.29133 -6.504797,4.78856 -9.431041,5.4136 -9.431041,2.01445 0,-1.43966 1.856884,-2.94952 6.747273,-5.4863 3.711,-1.925 6.7485,-3.75476 6.75,-4.06613 0.0015,-0.31137 -2.719763,-1.86736 -6.04725,-3.45776 -7.327505,-3.50222 -8.686978,-4.88321 -6.912254,-7.02162 1.599404,-1.92716 2.616111,-1.53561 9.49146,3.65533 3.038082,2.29377 5.687142,3.99493 5.8868,3.78034 0.199657,-0.21459 0.02447,-3.76516 -0.3893,-7.89016 -0.806898,-8.04418 0.221299,-10.88627 3.485251,-9.63378 1.457996,0.55949 1.576843,1.72281 0.947662,9.27603 -0.811006,9.73603 -1.33733,9.5148 7.278804,3.05957 C 94.089248,193.69298 97,193.36659 97,196.77542 c 0,1.28668 -2.100214,2.85422 -7,5.22458 -3.85,1.86251 -7,3.68283 -7,4.04515 0,0.36233 3.15,2.1107 7,3.88528 5.175642,2.38561 7,3.73548 7,5.17943 0,3.6084 -2.829082,3.11316 -9.529532,-1.66819 l -6.632443,-4.73281 0.330988,8.89557 c 0.313567,8.42739 0.219266,8.91151 -1.791735,9.19844 -1.167498,0.16658 -2.33308,-0.28342 -2.590184,-1 z m 62.817166,-30.95748 c -2.37629,-3.39263 0.4933,-7.58398 4.35354,-6.35879 2.81202,0.89251 3.57029,4.27239 1.47735,6.58506 -2.26645,2.50439 -3.96441,2.4385 -5.83089,-0.22627 z M 0,148 c 0,-0.66532 166.18634,-1 496.55902,-1 330.7847,0 496.35269,0.33385 495.94098,1 -0.41068,0.66449 -167.01038,1 -496.55902,1 C 165.98033,149 0,148.66532 0,148 Z m 0,-8 c 0,-0.66532 166.16667,-1 496.5,-1 330.33333,0 496.5,0.33468 496.5,1 0,0.66532 -166.16667,1 -496.5,1 C 166.16667,141 0,140.66532 0,140 Z m 434.10598,-23.56428 c -3.97372,-3.34366 -5.23251,-8.20971 -4.51042,-17.43572 0.73947,-9.448149 -0.56414,-11.903807 -5.42055,-10.210854 -1.87993,0.655348 -3.35918,0.721884 -3.7024,0.166532 -0.72234,-1.16876 4.81851,-4.618337 9.90826,-6.168609 3.59509,-1.095019 4.02157,-1.008294 5.79171,1.177736 1.67357,2.066766 1.87463,3.758317 1.61914,13.622141 L 437.5,108.84929 l 2.93709,3.07535 c 4.05563,4.24656 8.40608,4.18836 13.05601,-0.17464 3.88961,-3.6496 5.64175,-9.41183 4.35232,-14.31335 -0.44323,-1.684842 -3.97956,-7.965439 -7.85852,-13.956881 -3.87895,-5.991442 -7.31163,-11.925435 -7.62818,-13.18665 -1.24739,-4.969992 2.33434,-10.885041 9.9175,-16.37825 l 3.84792,-2.787422 -2.49327,-1.633657 C 450.06975,47.160455 441.40326,44 438.566,44 c -3.76392,0 -8.22991,4.472038 -10.10563,10.119325 -1.18164,3.557583 -1.99486,4.746188 -2.73847,4.002576 -1.40781,-1.407806 0.62258,-8.367911 3.92372,-13.450405 2.83228,-4.360626 8.97891,-7.616094 14.44303,-7.649534 2.31035,-0.01414 7.23068,1.759073 13.81313,4.978038 5.62346,2.75 11.18714,5 12.36374,5 1.17659,0 3.57246,-1.389108 5.32414,-3.086906 1.77675,-1.722088 3.45666,-2.647158 3.79959,-2.092296 0.73119,1.183101 -6.53433,10.651298 -9.31561,12.139791 -2.49798,1.336879 -6.66396,1.32903 -9.1796,-0.01729 -1.54446,-0.826573 -2.73071,-0.589326 -5.4469,1.089378 -5.70433,3.525468 -6.93801,8.130433 -3.82216,14.266988 3.18152,6.265875 3.24274,6.2659 9.60845,0.0039 l 5.89965,-5.80355 2.42849,3 c 2.92996,3.619475 3.04787,5.525807 0.53382,8.630528 -1.82068,2.248444 -1.98941,2.27536 -3.82874,0.610784 -1.05827,-0.957721 -2.7887,-1.727 -3.84539,-1.709509 C 460.4702,74.0641 457,76.193805 457,77.358899 c 0,0.351128 2.01998,3.239567 4.48884,6.418754 5.70154,7.34195 6.71308,12.716781 3.68262,19.567627 -5.41305,12.2371 -23.18147,19.7244 -31.06548,13.09044 z M 258.9126,104.83669 c -1.64142,-3.06703 0.36601,-11.302854 4.25551,-17.458899 C 264.86314,84.695006 270.76772,76.65 276.28939,69.5 289.51664,52.372068 288.96256,53.160695 286.5,54.967066 c -8.77973,6.440226 -19.57754,16.484636 -26.07776,24.258245 -14.44289,17.272219 -19.96536,22.195759 -27.73742,24.729189 -8.15852,2.65941 -15.34584,-1.71789 -12.51492,-7.621958 1.69091,-3.526506 5.53948,-5.558445 8.01677,-4.232638 3.65992,1.958729 1.505,6.900096 -3.00911,6.900096 -2.03991,0 -2.22586,0.236874 -1.17756,1.5 1.40946,1.6983 6.62822,1.97205 10.38262,0.54463 C 238.23026,99.581757 244.35982,93.624389 255.0066,81 266.71731,67.114068 269.43281,64.580676 288,50.219268 c 7.975,-6.168528 15.9401,-12.381752 17.70023,-13.807164 5.34398,-4.327745 5.78132,-1.805599 0.76489,4.411096 -4.2868,5.312473 -34.21834,46.677673 -37.75473,52.1768 -0.88424,1.375 -2.3504,4.3 -3.25814,6.5 l -1.65042,4 3.20791,-3 c 1.76435,-1.65 9.43279,-10.2 17.04097,-19 15.18037,-17.558343 46.59934,-47.5 49.84365,-47.5 1.96724,0 1.19209,1.352101 -5.97237,10.417576 -3.87617,4.904667 -10.55378,14.804667 -14.83915,22 -4.28536,7.195333 -10.09808,16.613831 -12.91714,20.929996 -5.03914,7.715234 -7.64529,14.067428 -6.51911,15.889608 1.55105,2.50967 10.77772,-2.97682 16.67621,-9.916229 C 311.87535,91.494428 313.56285,90 314.0728,90 c 4.4914,0 -8.35934,12.79831 -15.64428,15.58045 -4.18016,1.59642 -4.96112,1.63099 -7.29184,0.32279 -6.92517,-3.887 -5.30176,-10.92145 6.80216,-29.474678 13.26666,-20.335508 11.25757,-19.590938 -8.28777,3.071438 -23.63289,27.4018 -27.79653,30.83375 -30.73847,25.33669 z m 259.10138,-1.41796 c -5.70587,-4.166585 -8.20959,-4.613232 -12.78471,-2.28071 -5.74016,2.92651 -5.86647,1.73169 -0.3613,-3.41775 6.49105,-6.071619 10.03993,-6.295859 18.36048,-1.160123 3.17234,1.95808 6.21872,3.281522 6.76972,2.940983 1.71149,-1.057755 1.2383,-15.121803 -0.5696,-16.929701 -2.14197,-2.141971 -3.09585,-1.994196 -9.33834,1.446686 C 517.11486,85.658152 514.17438,87 513.55584,87 c -2.40578,0 -4.55597,-5.755721 -4.54053,-12.154292 0.008,-3.490139 0.34592,-6.835269 0.75,-7.433622 0.40408,-0.598353 3.83998,-3.159082 7.63533,-5.690509 l 6.90065,-4.602595 4.81611,2.440509 c 5.59461,2.835005 6.44182,2.918962 10.11566,1.002438 4.66266,-2.432356 4.01046,0.04795 -1.14835,4.367147 -4.89277,4.096457 -4.94126,4.111567 -9.75097,3.038522 -2.65855,-0.593125 -5.88528,-1.764433 -7.1705,-2.602906 -1.28522,-0.838474 -2.63522,-1.224942 -3,-0.858819 -1.18117,1.185516 -0.68184,13.375525 0.60041,14.657777 0.96826,0.968264 2.70529,0.56901 8.2577,-1.898028 l 7.0315,-3.124227 2.6319,2.263864 c 2.46554,2.12077 2.62516,2.783115 2.52523,10.478871 -0.0587,4.518254 -0.38302,9.08571 -0.72078,10.149902 -0.35711,1.125163 -3.83126,3.551438 -8.30166,5.797698 L 522.5,106.69454 Z M 348.52485,104.25 c 6.03584,-14.296691 12.88557,-40.373068 14.87491,-56.627545 l 0.59694,-4.877544 -3.93964,0.629974 c -6.5582,1.048699 -8.86682,2.363507 -11.51455,6.557777 -2.65097,4.199403 -7.97563,7.793589 -9.02663,6.093039 -1.5614,-2.5264 5.82383,-11.081529 12.58384,-14.577271 7.80237,-4.03476 27.82347,-5.66273 41.78373,-3.397547 10.93598,1.774466 14.39751,4.674546 14.29672,11.977837 -0.11329,8.208921 -6.88103,16.951637 -17.37566,22.446283 l -5.34449,2.798195 5.40226,10.613401 c 2.97124,5.837371 6.08748,11.400901 6.92497,12.363401 2.73951,3.1484 7.03592,2.18908 12.3162,-2.75 5.01032,-4.686568 9.92809,-6.295967 7.95121,-2.602128 C 414.74378,99.084295 402.80012,106 395.42682,106 390.95734,106 388.49471,103.12662 382,90.333642 377.86763,82.1939 375.788,79.162098 373.63666,78.141114 c -2.85693,-1.355848 -2.85889,-1.36333 -0.87666,-3.345558 1.13494,-1.13494 4.89714,-2.596757 8.77538,-3.409703 11.07004,-2.320475 16.37881,-6.935139 17.99278,-15.640266 1.43706,-7.750981 -4.18515,-11.529302 -18.53965,-12.459289 l -8.71964,-0.564921 -0.67691,4.889312 c -3.1256,22.575969 -12.3282,52.463471 -17.37666,56.434601 -3.22627,2.53778 -6.72863,2.66377 -5.69045,0.20471 z m 297.04305,-0.93365 c -0.65438,-1.70528 0.16788,-2.65941 19.70432,-22.864346 l 7.78171,-8.047995 -4.46406,-12.952005 c -2.45524,-7.123602 -4.9976,-14.446638 -5.64969,-16.273412 -0.67878,-1.901539 -2.20188,-3.707792 -3.5629,-4.225249 -3.87334,-1.472644 -2.92662,-3.304173 1.34927,-2.610292 7.52386,1.220955 7.91033,1.906933 19.57552,34.746876 5.94113,16.72554 11.05612,31.197573 11.36663,32.160073 0.45253,1.40273 -0.0296,1.75 -2.42962,1.75 -1.64681,0 -3.61179,-0.73932 -4.36664,-1.64293 -0.75484,-0.90361 -3.4383,-7.498402 -5.96324,-14.655089 l -4.59079,-13.012158 -12.25672,14.655089 c -12.00243,14.351048 -15.0459,16.744568 -16.49379,12.971438 z m -509.08155,-0.49132 c -0.28308,-0.7377 -0.39582,-15.962622 -0.25052,-33.833154 C 136.46427,40.894285 136.70286,36.5 138,36.5 c 1.25818,0 1.5444,2.539064 1.77539,15.75 l 0.2754,15.75 h 21.9746 C 183.33333,68 184,68.060676 184,70 c 0,1.939324 -0.66667,2 -21.97461,2 h -21.9746 l -0.2754,15.667772 c -0.20108,11.440241 -0.61253,15.779848 -1.52486,16.083158 -0.68721,0.22846 -1.48109,-0.18819 -1.76418,-0.9259 z m 440.6987,-0.55957 c 0.22129,-1.15703 1.53996,-1.93778 3.8263,-2.26546 L 584.5,99.5 v -29 -29 L 581.01135,41 c -2.29535,-0.328974 -3.60482,-1.107413 -3.82829,-2.27579 -0.31554,-1.649789 0.78346,-1.756222 15.48865,-1.5 C 605.95206,37.455605 608.5,37.741461 608.5,39 c 0,0.952381 -1.27778,1.68254 -3.5,2 l -3.5,0.5 -0.28079,27 c -0.15444,14.85 -0.0334,28.0125 0.26905,29.25 0.50276,2.057325 1.12624,2.249163 7.28079,2.240231 4.97217,-0.0072 8.06414,-0.630543 11.83312,-2.385506 6.32361,-2.944478 11.99266,-8.483509 12.89708,-12.60129 0.47888,-2.180362 1.1816,-3.014722 2.34243,-2.781268 1.90654,0.383423 1.85902,5.11647 -0.1534,15.277833 l -1.18828,6 -28.8263,0.26546 c -27.09089,0.24948 -28.80598,0.15918 -28.48865,-1.5 z M 597.5,70.5 V 41 H 593 588.5 V 70.5 100 h 4.5 4.5 z m 34.12571,28.032989 c 1.1205,-2.919955 -0.18762,-3.320249 -3.12571,-0.956491 l -3,2.413568 2.78138,0.005 c 1.52977,0.0027 3.03471,-0.655188 3.34433,-1.462044 z m 68.61954,4.231271 c 0.22655,-0.67966 2.35119,-1.5668 4.72143,-1.97143 2.37023,-0.40463 4.51815,-0.94433 4.77316,-1.199338 0.66112,-0.661117 14.20097,-54.735131 14.23331,-56.843492 0.0191,-1.245313 -0.76623,-1.754416 -2.72315,-1.765313 -3.7536,-0.0209 -6.08631,-1.548377 -4.61364,-3.021044 0.7726,-0.772605 7.12401,-1.017975 20.49164,-0.791641 21.61736,0.366015 25.36046,1.30197 28.98632,7.247963 4.76958,7.821558 -0.82484,18.814668 -11.54814,22.692264 -4.17579,1.509986 -4.499,2.436833 -1.14344,3.279023 3.36866,0.84548 8.28934,6.021358 9.05992,9.52979 1.71037,7.787292 -5.88427,18.214783 -16.03151,22.011348 -4.92784,1.84374 -7.75074,2.06761 -26.072,2.06761 -15.86575,0 -20.45199,-0.28149 -20.1339,-1.23574 z m 38.05607,-2.69438 c 4.94585,-1.148089 9.77921,-4.514147 12.78886,-8.906434 1.87786,-2.740559 2.40982,-4.821494 2.40982,-9.426761 0,-5.253252 -0.31572,-6.181427 -2.84174,-8.35421 -2.70983,-2.3309 -3.38004,-2.431318 -14.43901,-2.163417 L 724.62198,71.5 l -3.28447,13 c -1.80646,7.15 -3.2964,13.7875 -3.31099,14.75 -0.0232,1.52929 1.01398,1.74699 8.22348,1.72614 4.5375,-0.0131 9.96059,-0.42094 12.05132,-0.90626 z M 748.5995,65.605966 C 756.60589,61.877918 761.10615,53.881687 758.92218,47.264204 757.14729,41.886225 754.88074,41 742.90129,41 H 732.2476 l -3.1238,12.473753 c -1.71809,6.860564 -3.1238,12.935564 -3.1238,13.5 0,0.624217 3.4278,1.02242 8.75,1.016478 7.0979,-0.0079 9.71284,-0.458101 13.8495,-2.384265 z m 42.55628,-12.019795 c 0.24377,-4.827293 0.0202,-7.213971 -0.6407,-6.84097 -0.55829,0.315073 -3.06067,2.047155 -5.56084,3.849073 -2.98541,2.15164 -5.00914,2.98983 -5.89572,2.441894 -2.39175,-1.478186 -0.23542,-4.065827 5.62326,-6.748022 l 5.70642,-2.612486 -6.1941,-3.051396 C 780.05223,38.583855 778,36.980987 778,35.786434 c 0,-2.811399 3.24889,-2.140346 8.29621,1.713566 2.52109,1.925 4.73205,3.5 4.91323,3.5 0.18119,0 0.15683,-3.417885 -0.0541,-7.5953 -0.35261,-6.982616 -0.23317,-7.565287 1.48057,-7.223226 1.61765,0.322883 1.85607,1.318334 1.80333,7.529217 -0.0674,7.93793 -0.20834,7.875928 6.50506,2.861789 4.05076,-3.025453 7.36211,-3.421706 6.87319,-0.82248 -0.18105,0.9625 -3.02655,3.185651 -6.32333,4.940336 l -5.99414,3.190336 5.78197,2.561194 c 5.92745,2.625632 8.05683,5.112677 5.65066,6.599773 -0.89679,0.554244 -2.90146,-0.262751 -5.89572,-2.40278 -2.4953,-1.783414 -5.03081,-3.540895 -5.63446,-3.905515 -0.77399,-0.467502 -0.95633,1.53775 -0.6185,6.801855 C 795.24654,60.74326 795.18595,61 793.02221,61 c -2.15325,0 -2.22618,-0.289709 -1.86643,-7.413829 z M 481,58.83816 C 481,55.862788 491.45865,20.684209 492.71749,19.425372 493.50144,18.641417 494.75357,18 495.5,18 c 1.80606,0 4.5,2.770319 4.5,4.627593 0,0.816604 -3.44753,9.559461 -7.66119,19.428571 C 486.37202,56.031444 484.27095,60 482.83881,60 481.82747,60 481,59.477172 481,58.83816 Z"
       id="path377" />
  </g>
</svg>
